<svg viewBox="0 0 32 32" xmlns="http://www.w3.org/2000/svg">
  <!-- Background circle -->
  <circle cx="16" cy="16" r="15" fill="#2563eb" stroke="#1d4ed8" stroke-width="2"/>
  
  <!-- Chat bubble -->
  <path d="M8 12c0-2.2 1.8-4 4-4h8c2.2 0 4 1.8 4 4v4c0 2.2-1.8 4-4 4h-6l-4 3v-3c-1.1 0-2-.9-2-2v-6z" fill="white"/>
  
  <!-- Wave pattern inside chat bubble -->
  <g stroke="#2563eb" stroke-width="1.5" fill="none" stroke-linecap="round">
    <path d="M11 13.5c1 0 1-1 2-1s1 1 2 1 1-1 2-1 1 1 2 1"/>
    <path d="M11 16c1 0 1-1 2-1s1 1 2 1 1-1 2-1 1 1 2 1"/>
    <path d="M11 18.5c1 0 1-1 2-1s1 1 2 1 1-1 2-1 1 1 2 1"/>
  </g>
</svg>